<?xml version="1.0" encoding="UTF-8" standalone="no"?><svg xmlns="http://www.w3.org/2000/svg" xmlns:xlink="http://www.w3.org/1999/xlink" contentStyleType="text/css" height="832px" preserveAspectRatio="none" style="width:590px;height:832px;background:#003153;" version="1.1" viewBox="0 0 590 832" width="590px" zoomAndPan="magnify"><defs/><g><ellipse cx="238" cy="21" fill="#D9D3D0" rx="10" ry="10" style="stroke:none;stroke-width:1.0;"/><g id="Opening"><rect fill="#003153" height="54.0293" rx="12.5" ry="12.5" style="stroke:#D9D3D0;stroke-width:1.0;" width="202" x="137" y="92"/><line style="stroke:#D9D3D0;stroke-width:1.0;" x1="137" x2="339" y1="119.0146" y2="119.0146"/><text fill="#D9D3D0" font-family="Verdana" font-size="14" lengthAdjust="spacing" textLength="58" x="209" y="111.0752">Opening</text><text fill="#D9D3D0" font-family="Verdana" font-size="14" lengthAdjust="spacing" textLength="182" x="142" y="138.0898">ゲーム起動時のスタート画面</text></g><g id="GaolStage"><rect fill="#003153" height="71.0439" rx="12.5" ry="12.5" style="stroke:#D9D3D0;stroke-width:1.0;" width="244" x="297" y="259"/><line style="stroke:#D9D3D0;stroke-width:1.0;" x1="297" x2="541" y1="286.0146" y2="286.0146"/><text fill="#D9D3D0" font-family="Verdana" font-size="14" lengthAdjust="spacing" textLength="72" x="383" y="278.0752">GaolStage</text><text fill="#D9D3D0" font-family="Verdana" font-size="14" lengthAdjust="spacing" textLength="110" x="302" y="305.0898">[チュートリアル]</text><text fill="#D9D3D0" font-family="Verdana" font-size="14" lengthAdjust="spacing" textLength="224" x="302" y="322.1045">基本操作を覚えながら地上を目指す</text></g><g id="LabStage"><rect fill="#003153" height="88.0586" rx="12.5" ry="12.5" style="stroke:#D9D3D0;stroke-width:1.0;" width="314" x="248" y="407"/><line style="stroke:#D9D3D0;stroke-width:1.0;" x1="248" x2="562" y1="434.0146" y2="434.0146"/><text fill="#D9D3D0" font-family="Verdana" font-size="14" lengthAdjust="spacing" textLength="66" x="372" y="426.0752">LabStage</text><text fill="#D9D3D0" font-family="Verdana" font-size="14" lengthAdjust="spacing" textLength="54" x="253" y="453.0898">[謎解き]</text><text fill="#D9D3D0" font-family="Verdana" font-size="14" lengthAdjust="spacing" textLength="294" x="253" y="470.1045">何十にも掛けられたセキュリティを解きながら</text><text fill="#D9D3D0" font-family="Verdana" font-size="14" lengthAdjust="spacing" textLength="168" x="253" y="487.1191">研究施設脱出の糸口を探す</text></g><g id="UndergroundStage"><rect fill="#003153" height="71.0439" rx="12.5" ry="12.5" style="stroke:#D9D3D0;stroke-width:1.0;" width="272" x="197" y="624"/><line style="stroke:#D9D3D0;stroke-width:1.0;" x1="197" x2="469" y1="651.0146" y2="651.0146"/><text fill="#D9D3D0" font-family="Verdana" font-size="14" lengthAdjust="spacing" textLength="134" x="266" y="643.0752">UndergroundStage</text><text fill="#D9D3D0" font-family="Verdana" font-size="14" lengthAdjust="spacing" textLength="68" x="202" y="670.0898">[ステルス]</text><text fill="#D9D3D0" font-family="Verdana" font-size="14" lengthAdjust="spacing" textLength="252" x="202" y="687.1045">何者かの影から逃げながら出口を目指す</text></g><g id="BossStage"><rect fill="#003153" height="54.0293" rx="12.5" ry="12.5" style="stroke:#D9D3D0;stroke-width:1.0;" width="258" x="12" y="772"/><line style="stroke:#D9D3D0;stroke-width:1.0;" x1="12" x2="270" y1="799.0146" y2="799.0146"/><text fill="#D9D3D0" font-family="Verdana" font-size="14" lengthAdjust="spacing" textLength="76" x="103" y="791.0752">BossStage</text><text fill="#D9D3D0" font-family="Verdana" font-size="14" lengthAdjust="spacing" textLength="238" x="17" y="818.0898">迫りくる脅威を振り払って駆け抜ける</text></g><g id="EndGame"><rect fill="#003153" height="50" rx="12.5" ry="12.5" style="stroke:#D9D3D0;stroke-width:1.0;" width="87" x="14.5" y="269.5"/><line style="stroke:#D9D3D0;stroke-width:1.0;" x1="14.5" x2="101.5" y1="296.5146" y2="296.5146"/><text fill="#D9D3D0" font-family="Verdana" font-size="14" lengthAdjust="spacing" textLength="67" x="24.5" y="288.5752">EndGame</text></g><ellipse cx="454" cy="119" fill="none" rx="10" ry="10" style="stroke:#D9D3D0;stroke-width:1.0;"/><ellipse cx="454.5" cy="119.5" fill="#D9D3D0" rx="6" ry="6" style="stroke:none;stroke-width:1.0;"/><g id="elem_GMN20"><path d="M136.5,281.5 L136.5,290.5 L101.51,294.5 L136.5,298.5 L136.5,307.2993 A0,0 0 0 0 136.5,307.2993 L261.5,307.2993 A0,0 0 0 0 261.5,307.2993 L261.5,291.5 L251.5,281.5 L136.5,281.5 A0,0 0 0 0 136.5,281.5 " fill="#003153" style="stroke:#D9D3D0;stroke-width:1.0;"/><path d="M251.5,281.5 L251.5,291.5 L261.5,291.5 L251.5,281.5 " fill="#003153" style="stroke:#D9D3D0;stroke-width:1.0;"/><text fill="#D9D3D0" font-family="Verdana" font-size="13" lengthAdjust="spacing" textLength="104" x="142.5" y="299.5698">クレジットを流す</text></g><!--MD5=[e8da600fb057ceb5b7d64bc78449cf7b]
link *start to Opening--><g id="link_*start_Opening"><path d="M238,31.2 C238,43.82 238,67.1 238,86.38 " fill="none" id="*start-to-Opening" style="stroke:#D9D3D0;stroke-width:1.0;"/><polygon fill="#D9D3D0" points="238,91.7,242,82.7,238,86.7,234,82.7,238,91.7" style="stroke:#D9D3D0;stroke-width:1.0;"/></g><!--MD5=[0b63feedb21d03361a7a9113b3ce1068]
link Opening to GaolStage--><g id="link_Opening_GaolStage"><path d="M265.49,146.35 C295.74,175.35 344.63,222.21 379.09,255.25 " fill="none" id="Opening-to-GaolStage" style="stroke:#D9D3D0;stroke-width:1.0;"/><polygon fill="#D9D3D0" points="382.8,258.8,379.0611,249.6884,379.1868,255.3439,373.5313,255.4696,382.8,258.8" style="stroke:#D9D3D0;stroke-width:1.0;"/><text fill="#D9D3D0" font-family="Verdana" font-size="13" lengthAdjust="spacing" textLength="94" x="409.5" y="190.0698">Press Any Key</text><path d="M355,198.7993 L355,223.7993 L558,223.7993 L558,208.7993 L548,198.7993 L355,198.7993 " fill="#003153" style="stroke:#D9D3D0;stroke-width:1.0;"/><path d="M548,198.7993 L548,208.7993 L558,208.7993 L548,198.7993 " fill="#003153" style="stroke:#D9D3D0;stroke-width:1.0;"/><text fill="#D9D3D0" font-family="Verdana" font-size="13" lengthAdjust="spacing" textLength="182" x="361" y="216.8691">スキップ可能なムービーを流す</text></g><!--MD5=[7148d3e37c8218d4e163f8cbcd68b7f4]
link GaolStage to LabStage--><g id="link_GaolStage_LabStage"><path d="M415.86,330.17 C413.95,351.26 411.48,378.51 409.38,401.7 " fill="none" id="GaolStage-to-LabStage" style="stroke:#D9D3D0;stroke-width:1.0;"/><polygon fill="#D9D3D0" points="408.91,406.88,413.6928,398.2704,409.3536,401.8997,405.7243,397.5606,408.91,406.88" style="stroke:#D9D3D0;stroke-width:1.0;"/><text fill="#D9D3D0" font-family="Verdana" font-size="13" lengthAdjust="spacing" textLength="169" x="413" y="374.0698">研究施設内へ続く梯子に到達</text></g><!--MD5=[483a7ca7c6edde2848719dea5cfb6450]
link LabStage to UndergroundStage--><g id="link_LabStage_UndergroundStage"><path d="M389.99,495.04 C377.31,531.43 359.27,583.15 346.91,618.62 " fill="none" id="LabStage-to-UndergroundStage" style="stroke:#D9D3D0;stroke-width:1.0;"/><polygon fill="#D9D3D0" points="345.12,623.73,351.8589,616.5476,346.7654,619.0085,344.3045,613.915,345.12,623.73" style="stroke:#D9D3D0;stroke-width:1.0;"/><text fill="#D9D3D0" font-family="Verdana" font-size="13" lengthAdjust="spacing" textLength="156" x="378" y="565.0698">正体不明の何かに襲われる</text></g><!--MD5=[f9557c613590f6837a20640aef38bf16]
link UndergroundStage to BossStage--><g id="link_UndergroundStage_BossStage"><path d="M284.55,695.2 C252.79,717.95 211.73,747.35 181.66,768.88 " fill="none" id="UndergroundStage-to-BossStage" style="stroke:#D9D3D0;stroke-width:1.0;"/><polygon fill="#D9D3D0" points="177.31,772,186.9566,770.0142,181.3758,769.0898,182.3002,763.509,177.31,772" style="stroke:#D9D3D0;stroke-width:1.0;"/><text fill="#D9D3D0" font-family="Verdana" font-size="13" lengthAdjust="spacing" textLength="234" x="244" y="739.0698">出口に続くはずだった行き止まりに到達</text></g><!--MD5=[3da233aaee93db182e5eaf502f1f2cc4]
reverse link EndGame to BossStage--><g id="link_EndGame_BossStage"><path d="M62.86,324.9 C77.74,415.02 122.57,686.43 136.69,771.92 " fill="none" id="EndGame-backto-BossStage" style="stroke:#D9D3D0;stroke-width:1.0;"/><polygon fill="#D9D3D0" points="62,319.74,59.5206,329.2717,62.815,324.6731,67.4136,327.9676,62,319.74" style="stroke:#D9D3D0;stroke-width:1.0;"/><text fill="#D9D3D0" font-family="Verdana" font-size="13" lengthAdjust="spacing" textLength="104" x="162.5" y="539.0698">ボスから逃げ切る</text><path d="M113,547.7993 L113,588.7993 L316,588.7993 L316,557.7993 L306,547.7993 L113,547.7993 " fill="#003153" style="stroke:#D9D3D0;stroke-width:1.0;"/><path d="M306,547.7993 L306,557.7993 L316,557.7993 L306,547.7993 " fill="#003153" style="stroke:#D9D3D0;stroke-width:1.0;"/><text fill="#D9D3D0" font-family="Verdana" font-size="13" lengthAdjust="spacing" textLength="182" x="119" y="565.8691">無事に研究施設の外に辿り着き</text><text fill="#D9D3D0" font-family="Verdana" font-size="13" lengthAdjust="spacing" textLength="117" x="119" y="581.6685">陽の光に目を細める</text></g><!--MD5=[6a1ebb090821c44976fc602d4a8853d2]
reverse link Opening to EndGame--><g id="link_Opening_EndGame"><path d="M206.91,149.97 C171.8,183.81 115.35,238.22 82.98,269.42 " fill="none" id="Opening-backto-EndGame" style="stroke:#D9D3D0;stroke-width:1.0;"/><polygon fill="#D9D3D0" points="210.66,146.35,201.4049,149.7178,207.0608,149.8207,206.9579,155.4766,210.66,146.35" style="stroke:#D9D3D0;stroke-width:1.0;"/></g><!--MD5=[df83ccee67f013beac5f63a1d5367535]
link Opening to *end--><g id="link_Opening_*end"><path d="M339.04,119 C377.75,119 417.65,119 438.75,119 " fill="none" id="Opening-to-*end" style="stroke:#D9D3D0;stroke-width:1.0;"/><polygon fill="#D9D3D0" points="443.94,119,434.94,115,438.94,119,434.94,123,443.94,119" style="stroke:#D9D3D0;stroke-width:1.0;"/><text fill="#D9D3D0" font-family="Verdana" font-size="13" lengthAdjust="spacing" textLength="68" x="357.5" y="113.0698">Quit Game</text></g><!--MD5=[e5ef727910c07f96463ca10e3e98b0f0]
@startuml Stage Transition
!theme blueprint


[*] - -> Opening

Opening - -> GaolStage : Press Any Key
note on link
  スキップ可能なムービーを流す
end note
GaolStage - -> LabStage : 研究施設内へ続く梯子に到達
LabStage - -> UndergroundStage : 正体不明の何かに襲われる
UndergroundStage - -> BossStage : 出口に続くはずだった行き止まりに到達
BossStage -l> EndGame : ボスから逃げ切る
note on link
  無事に研究施設の外に辿り着き
  陽の光に目を細める
end note
EndGame -u-> Opening
Opening -> [*] : Quit Game

Opening : ゲーム起動時のスタート画面

GaolStage : [チュートリアル]
GaolStage : 基本操作を覚えながら地上を目指す

LabStage : [謎解き]
LabStage : 何十にも掛けられたセキュリティを解きながら
LabStage : 研究施設脱出の糸口を探す

UndergroundStage : [ステルス]
UndergroundStage : 何者かの影から逃げながら出口を目指す

BossStage : 迫りくる脅威を振り払って駆け抜ける

note right of EndGame
  クレジットを流す
end note

@enduml

@startuml Stage Transition





<style>
  root {
    BackgroundColor #003153
    FontColor #D9D3D0
    FontName Verdana
    HyperLinkColor #D9D3D0
    LineColor #D9D3D0
    LineThickness 1
    Margin 5
  }
  caption {
    LineThickness 0
  }
  footer {
    LineThickness 0
  }
  header {
    LineThickness 0
  }
  node {
    MaximumWidth 300
  }
  title {
    FontSize 22
    LineThickness 0
  }
</style>

skinparam ArrowLollipopColor #D9D3D0
skinparam BackgroundColor #003153
skinparam DefaultFontName Verdana
skinparam DefaultMonospacedFontName Courier
skinparam LifelineStrategy nosolid
skinparam ParticipantPadding 10
skinparam SequenceLifeLineBorderColor #D9D3D0
skinparam Shadowing false
skinparam UseBetaStyle true

skinparam Activity {
  BackgroundColor #003153
  BarColor #D9D3D0
  BorderColor #D9D3D0
  FontColor #D9D3D0
  FontName Verdana
}
skinparam Boundary {
  FontColor #D9D3D0
}
skinparam Box {
  Padding 5
}
skinparam CircledCharacter {
  FontColor #D9D3D0
  FontName Courier
  Radius 9
}
skinparam Class {
  BackgroundColor #003153
  BorderColor #D9D3D0
  FontColor #D9D3D0
  FontName Verdana
}
skinparam ClassAttribute {
  FontColor #D9D3D0
  FontName Verdana
}
skinparam ClassStereotype {
  FontColor #D9D3D0
  FontName Verdana
}
skinparam Footer {
  FontColor #D9D3D0
  FontName Verdana
}
skinparam Header {
  FontColor #D9D3D0
  FontName Verdana
}
skinparam Hyperlink {
  Color #D9D3D0
}
skinparam IconPackage {
  Color #D9D3D0
  BackgroundColor #003153
}
skinparam IconPrivate {
  Color #D9D3D0
  BackgroundColor #003153
}
skinparam IconProtected {
  Color #D9D3D0
  BackgroundColor #003153
}
skinparam IconPublic {
  Color #D9D3D0
  BackgroundColor #003153
}
skinparam Note {
  FontColor #D9D3D0
  FontName Verdana
}
skinparam Object {
  BorderColor #D9D3D0
}
skinparam Package {
  BorderColor #D9D3D0
  FontColor #D9D3D0
  FontName Verdana
}
skinparam State {
  BackgroundColor #003153
  BorderColor #D9D3D0
}
skinparam StereotypeA {
  BackgroundColor #003153
  BorderColor #D9D3D0
}
skinparam StereotypeC {
  BackgroundColor #003153
  BorderColor #D9D3D0
}
skinparam StereotypeE {
  BackgroundColor #003153
  BorderColor #D9D3D0
}
skinparam StereotypeI {
  BackgroundColor #003153
  BorderColor #D9D3D0
}
skinparam StereotypeN {
  BackgroundColor #003153
  BorderColor #D9D3D0
}
skinparam UseCaseStereoType {
  FontColor #D9D3D0
  FontName Verdana
}


[*] - -> Opening

Opening - -> GaolStage : Press Any Key
note on link
  スキップ可能なムービーを流す
end note
GaolStage - -> LabStage : 研究施設内へ続く梯子に到達
LabStage - -> UndergroundStage : 正体不明の何かに襲われる
UndergroundStage - -> BossStage : 出口に続くはずだった行き止まりに到達
BossStage -l> EndGame : ボスから逃げ切る
note on link
  無事に研究施設の外に辿り着き
  陽の光に目を細める
end note
EndGame -u-> Opening
Opening -> [*] : Quit Game

Opening : ゲーム起動時のスタート画面

GaolStage : [チュートリアル]
GaolStage : 基本操作を覚えながら地上を目指す

LabStage : [謎解き]
LabStage : 何十にも掛けられたセキュリティを解きながら
LabStage : 研究施設脱出の糸口を探す

UndergroundStage : [ステルス]
UndergroundStage : 何者かの影から逃げながら出口を目指す

BossStage : 迫りくる脅威を振り払って駆け抜ける

note right of EndGame
  クレジットを流す
end note

@enduml

PlantUML version 1.2022.7(Tue Aug 23 02:01:30 JST 2022)
(GPL source distribution)
Java Runtime: Java(TM) SE Runtime Environment
JVM: Java HotSpot(TM) 64-Bit Server VM
Default Encoding: MS932
Language: ja
Country: JP
--></g></svg>