<?xml version="1.0" encoding="UTF-8" standalone="no"?><svg xmlns="http://www.w3.org/2000/svg" xmlns:xlink="http://www.w3.org/1999/xlink" contentStyleType="text/css" height="796px" preserveAspectRatio="none" style="width:588px;height:796px;background:#003153;" version="1.1" viewBox="0 0 588 796" width="588px" zoomAndPan="magnify"><defs/><g><ellipse cx="403" cy="21" fill="#D9D3D0" rx="10" ry="10" style="stroke:none;stroke-width:1.0;"/><g id="Opening"><rect fill="#003153" height="54.0293" rx="12.5" ry="12.5" style="stroke:#D9D3D0;stroke-width:1.0;" width="202" x="302" y="92"/><line style="stroke:#D9D3D0;stroke-width:1.0;" x1="302" x2="504" y1="119.0146" y2="119.0146"/><text fill="#D9D3D0" font-family="Verdana" font-size="14" lengthAdjust="spacing" textLength="58" x="374" y="111.0752">Opening</text><text fill="#D9D3D0" font-family="Verdana" font-size="14" lengthAdjust="spacing" textLength="182" x="307" y="138.0898">ゲーム起動時のスタート画面</text></g><g id="GaolStage"><rect fill="#003153" height="71.0439" rx="12.5" ry="12.5" style="stroke:#D9D3D0;stroke-width:1.0;" width="244" x="297" y="223"/><line style="stroke:#D9D3D0;stroke-width:1.0;" x1="297" x2="541" y1="250.0146" y2="250.0146"/><text fill="#D9D3D0" font-family="Verdana" font-size="14" lengthAdjust="spacing" textLength="72" x="383" y="242.0752">GaolStage</text><text fill="#D9D3D0" font-family="Verdana" font-size="14" lengthAdjust="spacing" textLength="110" x="302" y="269.0898">[チュートリアル]</text><text fill="#D9D3D0" font-family="Verdana" font-size="14" lengthAdjust="spacing" textLength="224" x="302" y="286.1045">基本操作を覚えながら地上を目指す</text></g><g id="LabStage"><rect fill="#003153" height="88.0586" rx="12.5" ry="12.5" style="stroke:#D9D3D0;stroke-width:1.0;" width="314" x="242" y="371"/><line style="stroke:#D9D3D0;stroke-width:1.0;" x1="242" x2="556" y1="398.0146" y2="398.0146"/><text fill="#D9D3D0" font-family="Verdana" font-size="14" lengthAdjust="spacing" textLength="66" x="366" y="390.0752">LabStage</text><text fill="#D9D3D0" font-family="Verdana" font-size="14" lengthAdjust="spacing" textLength="54" x="247" y="417.0898">[謎解き]</text><text fill="#D9D3D0" font-family="Verdana" font-size="14" lengthAdjust="spacing" textLength="294" x="247" y="434.1045">幾重にも掛けられたセキュリティを解きながら</text><text fill="#D9D3D0" font-family="Verdana" font-size="14" lengthAdjust="spacing" textLength="168" x="247" y="451.1191">研究施設脱出の糸口を探す</text></g><g id="UndergroundStage"><rect fill="#003153" height="71.0439" rx="12.5" ry="12.5" style="stroke:#D9D3D0;stroke-width:1.0;" width="272" x="210" y="588"/><line style="stroke:#D9D3D0;stroke-width:1.0;" x1="210" x2="482" y1="615.0146" y2="615.0146"/><text fill="#D9D3D0" font-family="Verdana" font-size="14" lengthAdjust="spacing" textLength="134" x="279" y="607.0752">UndergroundStage</text><text fill="#D9D3D0" font-family="Verdana" font-size="14" lengthAdjust="spacing" textLength="68" x="215" y="634.0898">[ステルス]</text><text fill="#D9D3D0" font-family="Verdana" font-size="14" lengthAdjust="spacing" textLength="252" x="215" y="651.1045">何者かの影から逃げながら出口を目指す</text></g><g id="BossStage"><rect fill="#003153" height="54.0293" rx="12.5" ry="12.5" style="stroke:#D9D3D0;stroke-width:1.0;" width="258" x="12" y="736"/><line style="stroke:#D9D3D0;stroke-width:1.0;" x1="12" x2="270" y1="763.0146" y2="763.0146"/><text fill="#D9D3D0" font-family="Verdana" font-size="14" lengthAdjust="spacing" textLength="76" x="103" y="755.0752">BossStage</text><text fill="#D9D3D0" font-family="Verdana" font-size="14" lengthAdjust="spacing" textLength="238" x="17" y="782.0898">迫りくる脅威を振り払って駆け抜ける</text></g><g id="EndGame"><rect fill="#003153" height="50" rx="12.5" ry="12.5" style="stroke:#D9D3D0;stroke-width:1.0;" width="87" x="14.5" y="233.5"/><line style="stroke:#D9D3D0;stroke-width:1.0;" x1="14.5" x2="101.5" y1="260.5146" y2="260.5146"/><text fill="#D9D3D0" font-family="Verdana" font-size="14" lengthAdjust="spacing" textLength="67" x="24.5" y="252.5752">EndGame</text></g><ellipse cx="149" cy="119" fill="none" rx="10" ry="10" style="stroke:#D9D3D0;stroke-width:1.0;"/><ellipse cx="149.5" cy="119.5" fill="#D9D3D0" rx="6" ry="6" style="stroke:none;stroke-width:1.0;"/><g id="elem_GMN21"><path d="M136.5,245.5 L136.5,254.5 L101.51,258.5 L136.5,262.5 L136.5,271.2993 A0,0 0 0 0 136.5,271.2993 L261.5,271.2993 A0,0 0 0 0 261.5,271.2993 L261.5,255.5 L251.5,245.5 L136.5,245.5 A0,0 0 0 0 136.5,245.5 " fill="#003153" style="stroke:#D9D3D0;stroke-width:1.0;"/><path d="M251.5,245.5 L251.5,255.5 L261.5,255.5 L251.5,245.5 " fill="#003153" style="stroke:#D9D3D0;stroke-width:1.0;"/><text fill="#D9D3D0" font-family="Verdana" font-size="13" lengthAdjust="spacing" textLength="104" x="142.5" y="263.5698">クレジットを流す</text></g><!--MD5=[e8da600fb057ceb5b7d64bc78449cf7b]
link *start to Opening--><g id="link_*start_Opening"><path d="M403,31.2 C403,43.82 403,67.1 403,86.38 " fill="none" id="*start-to-Opening" style="stroke:#D9D3D0;stroke-width:1.0;"/><polygon fill="#D9D3D0" points="403,91.7,407,82.7,403,86.7,399,82.7,403,91.7" style="stroke:#D9D3D0;stroke-width:1.0;"/></g><!--MD5=[0b63feedb21d03361a7a9113b3ce1068]
link Opening to GaolStage--><g id="link_Opening_GaolStage"><path d="M406.05,146.19 C408.4,166.4 411.69,194.7 414.37,217.71 " fill="none" id="Opening-to-GaolStage" style="stroke:#D9D3D0;stroke-width:1.0;"/><polygon fill="#D9D3D0" points="414.97,222.83,417.8895,213.4238,414.385,217.8643,409.9444,214.3598,414.97,222.83" style="stroke:#D9D3D0;stroke-width:1.0;"/><text fill="#D9D3D0" font-family="Verdana" font-size="13" lengthAdjust="spacing" textLength="91" x="412" y="190.0698">右に歩き続ける</text></g><!--MD5=[7148d3e37c8218d4e163f8cbcd68b7f4]
link GaolStage to LabStage--><g id="link_GaolStage_LabStage"><path d="M414.51,294.17 C411.78,315.26 408.25,342.51 405.25,365.7 " fill="none" id="GaolStage-to-LabStage" style="stroke:#D9D3D0;stroke-width:1.0;"/><polygon fill="#D9D3D0" points="404.58,370.88,409.7042,362.4692,405.223,365.9215,401.7707,361.4403,404.58,370.88" style="stroke:#D9D3D0;stroke-width:1.0;"/><text fill="#D9D3D0" font-family="Verdana" font-size="13" lengthAdjust="spacing" textLength="169" x="411" y="338.0698">研究施設内へ続く梯子に到達</text></g><!--MD5=[483a7ca7c6edde2848719dea5cfb6450]
link LabStage to UndergroundStage--><g id="link_LabStage_UndergroundStage"><path d="M387.95,459.04 C378.61,495.43 365.34,547.15 356.24,582.62 " fill="none" id="LabStage-to-UndergroundStage" style="stroke:#D9D3D0;stroke-width:1.0;"/><polygon fill="#D9D3D0" points="354.92,587.73,361.0317,580.0068,356.1629,582.8869,353.2828,578.0182,354.92,587.73" style="stroke:#D9D3D0;stroke-width:1.0;"/><text fill="#D9D3D0" font-family="Verdana" font-size="13" lengthAdjust="spacing" textLength="156" x="379" y="529.0698">正体不明の何かに襲われる</text></g><!--MD5=[f9557c613590f6837a20640aef38bf16]
link UndergroundStage to BossStage--><g id="link_UndergroundStage_BossStage"><path d="M294.53,659.02 C260.48,681.86 216.34,711.47 184.13,733.07 " fill="none" id="UndergroundStage-to-BossStage" style="stroke:#D9D3D0;stroke-width:1.0;"/><polygon fill="#D9D3D0" points="179.87,735.93,189.5733,734.2428,184.0237,733.1466,185.1199,727.597,179.87,735.93" style="stroke:#D9D3D0;stroke-width:1.0;"/><text fill="#D9D3D0" font-family="Verdana" font-size="13" lengthAdjust="spacing" textLength="234" x="250" y="703.0698">出口に続くはずだった行き止まりに到達</text></g><!--MD5=[3da233aaee93db182e5eaf502f1f2cc4]
reverse link EndGame to BossStage--><g id="link_EndGame_BossStage"><path d="M62.86,288.9 C77.74,379.02 122.57,650.43 136.69,735.92 " fill="none" id="EndGame-backto-BossStage" style="stroke:#D9D3D0;stroke-width:1.0;"/><polygon fill="#D9D3D0" points="62,283.74,59.5206,293.2717,62.815,288.6731,67.4136,291.9676,62,283.74" style="stroke:#D9D3D0;stroke-width:1.0;"/><text fill="#D9D3D0" font-family="Verdana" font-size="13" lengthAdjust="spacing" textLength="104" x="162.5" y="503.0698">ボスから逃げ切る</text><path d="M113,511.7993 L113,552.7993 L316,552.7993 L316,521.7993 L306,511.7993 L113,511.7993 " fill="#003153" style="stroke:#D9D3D0;stroke-width:1.0;"/><path d="M306,511.7993 L306,521.7993 L316,521.7993 L306,511.7993 " fill="#003153" style="stroke:#D9D3D0;stroke-width:1.0;"/><text fill="#D9D3D0" font-family="Verdana" font-size="13" lengthAdjust="spacing" textLength="182" x="119" y="529.8691">無事に研究施設の外に辿り着き</text><text fill="#D9D3D0" font-family="Verdana" font-size="13" lengthAdjust="spacing" textLength="117" x="119" y="545.6685">陽の光に目を細める</text></g><!--MD5=[da658d05db3aa525c89c2913f41e5c4f]
reverse link *end to EndGame--><g id="link_*end_EndGame"><path d="M140.92,132.2 C125.95,154.83 93.61,203.7 74.03,233.27 " fill="none" id="*end-backto-EndGame" style="stroke:#D9D3D0;stroke-width:1.0;"/><polygon fill="#D9D3D0" points="143.85,127.79,135.5504,133.0926,141.093,131.9612,142.2244,137.5038,143.85,127.79" style="stroke:#D9D3D0;stroke-width:1.0;"/></g><!--MD5=[471f7c344b49c53352de83f3d0f1d723]
reverse link *end to Opening--><g id="link_*end_Opening"><path d="M164.58,119 C191.74,119 249.82,119 301.85,119 " fill="none" id="*end-backto-Opening" style="stroke:#D9D3D0;stroke-width:1.0;"/><polygon fill="#D9D3D0" points="159.27,119,168.27,123,164.27,119,168.27,115,159.27,119" style="stroke:#D9D3D0;stroke-width:1.0;"/><text fill="#D9D3D0" font-family="Verdana" font-size="13" lengthAdjust="spacing" textLength="91" x="185" y="113.0698">左に歩き続ける</text></g><!--MD5=[eb88c75d8cdc6960d34e649ca59aaf91]
@startuml Stage Transition
!theme blueprint


[*] - -> Opening

Opening - -> GaolStage : 右に歩き続ける
GaolStage - -> LabStage : 研究施設内へ続く梯子に到達
LabStage - -> UndergroundStage : 正体不明の何かに襲われる
UndergroundStage - -> BossStage : 出口に続くはずだった行き止まりに到達
BossStage -u> EndGame : ボスから逃げ切る
note on link
  無事に研究施設の外に辿り着き
  陽の光に目を細める
end note
EndGame -u-> [*]
Opening -l> [*] : 左に歩き続ける

Opening : ゲーム起動時のスタート画面

GaolStage : [チュートリアル]
GaolStage : 基本操作を覚えながら地上を目指す

LabStage : [謎解き]
LabStage : 幾重にも掛けられたセキュリティを解きながら
LabStage : 研究施設脱出の糸口を探す

UndergroundStage : [ステルス]
UndergroundStage : 何者かの影から逃げながら出口を目指す

BossStage : 迫りくる脅威を振り払って駆け抜ける

note right of EndGame
  クレジットを流す
end note

@enduml

@startuml Stage Transition





<style>
  root {
    BackgroundColor #003153
    FontColor #D9D3D0
    FontName Verdana
    HyperLinkColor #D9D3D0
    LineColor #D9D3D0
    LineThickness 1
    Margin 5
  }
  caption {
    LineThickness 0
  }
  footer {
    LineThickness 0
  }
  header {
    LineThickness 0
  }
  node {
    MaximumWidth 300
  }
  title {
    FontSize 22
    LineThickness 0
  }
</style>

skinparam ArrowLollipopColor #D9D3D0
skinparam BackgroundColor #003153
skinparam DefaultFontName Verdana
skinparam DefaultMonospacedFontName Courier
skinparam LifelineStrategy nosolid
skinparam ParticipantPadding 10
skinparam SequenceLifeLineBorderColor #D9D3D0
skinparam Shadowing false
skinparam UseBetaStyle true

skinparam Activity {
  BackgroundColor #003153
  BarColor #D9D3D0
  BorderColor #D9D3D0
  FontColor #D9D3D0
  FontName Verdana
}
skinparam Boundary {
  FontColor #D9D3D0
}
skinparam Box {
  Padding 5
}
skinparam CircledCharacter {
  FontColor #D9D3D0
  FontName Courier
  Radius 9
}
skinparam Class {
  BackgroundColor #003153
  BorderColor #D9D3D0
  FontColor #D9D3D0
  FontName Verdana
}
skinparam ClassAttribute {
  FontColor #D9D3D0
  FontName Verdana
}
skinparam ClassStereotype {
  FontColor #D9D3D0
  FontName Verdana
}
skinparam Footer {
  FontColor #D9D3D0
  FontName Verdana
}
skinparam Header {
  FontColor #D9D3D0
  FontName Verdana
}
skinparam Hyperlink {
  Color #D9D3D0
}
skinparam IconPackage {
  Color #D9D3D0
  BackgroundColor #003153
}
skinparam IconPrivate {
  Color #D9D3D0
  BackgroundColor #003153
}
skinparam IconProtected {
  Color #D9D3D0
  BackgroundColor #003153
}
skinparam IconPublic {
  Color #D9D3D0
  BackgroundColor #003153
}
skinparam Note {
  FontColor #D9D3D0
  FontName Verdana
}
skinparam Object {
  BorderColor #D9D3D0
}
skinparam Package {
  BorderColor #D9D3D0
  FontColor #D9D3D0
  FontName Verdana
}
skinparam State {
  BackgroundColor #003153
  BorderColor #D9D3D0
}
skinparam StereotypeA {
  BackgroundColor #003153
  BorderColor #D9D3D0
}
skinparam StereotypeC {
  BackgroundColor #003153
  BorderColor #D9D3D0
}
skinparam StereotypeE {
  BackgroundColor #003153
  BorderColor #D9D3D0
}
skinparam StereotypeI {
  BackgroundColor #003153
  BorderColor #D9D3D0
}
skinparam StereotypeN {
  BackgroundColor #003153
  BorderColor #D9D3D0
}
skinparam UseCaseStereoType {
  FontColor #D9D3D0
  FontName Verdana
}


[*] - -> Opening

Opening - -> GaolStage : 右に歩き続ける
GaolStage - -> LabStage : 研究施設内へ続く梯子に到達
LabStage - -> UndergroundStage : 正体不明の何かに襲われる
UndergroundStage - -> BossStage : 出口に続くはずだった行き止まりに到達
BossStage -u> EndGame : ボスから逃げ切る
note on link
  無事に研究施設の外に辿り着き
  陽の光に目を細める
end note
EndGame -u-> [*]
Opening -l> [*] : 左に歩き続ける

Opening : ゲーム起動時のスタート画面

GaolStage : [チュートリアル]
GaolStage : 基本操作を覚えながら地上を目指す

LabStage : [謎解き]
LabStage : 幾重にも掛けられたセキュリティを解きながら
LabStage : 研究施設脱出の糸口を探す

UndergroundStage : [ステルス]
UndergroundStage : 何者かの影から逃げながら出口を目指す

BossStage : 迫りくる脅威を振り払って駆け抜ける

note right of EndGame
  クレジットを流す
end note

@enduml

PlantUML version 1.2022.7(Tue Aug 23 02:01:30 JST 2022)
(GPL source distribution)
Java Runtime: Java(TM) SE Runtime Environment
JVM: Java HotSpot(TM) 64-Bit Server VM
Default Encoding: MS932
Language: ja
Country: JP
--></g></svg>